<?xml version="1.0" encoding="UTF-8"?>
<svg version="1.1" xmlns="http://www.w3.org/2000/svg" width="448" height="499">
<path d="M0 0 C2.37199069 0.29769924 4.5052099 0.72669863 6.8125 1.3125 C7.55113281 1.49562744 8.28976563 1.67875488 9.05078125 1.86743164 C79.56525301 19.94100268 149.08287421 54.705543 204.1015625 102.5 C206.81213825 104.83796291 209.57696791 107.08063862 212.375 109.3125 C222.12861257 117.24982401 231.15251474 126.07580244 240 135 C240.825 135.825 241.65 136.65 242.5 137.5 C243.325 138.325 244.15 139.15 245 140 C245.62648438 140.54527344 246.25296875 141.09054688 246.8984375 141.65234375 C247.55070312 142.24144531 248.20296875 142.83054688 248.875 143.4375 C249.49117188 143.97246094 250.10734375 144.50742188 250.7421875 145.05859375 C252 147 252 147 251.75463867 149.72021484 C250.94293864 153.24799815 249.73880325 156.15013015 248.18359375 159.41796875 C247.89572495 160.02427628 247.60785614 160.6305838 247.31126404 161.25526428 C246.36379826 163.23791336 245.4024024 165.21328273 244.4375 167.1875 C244.10631165 167.86929321 243.77512329 168.55108643 243.43389893 169.25354004 C231.19747153 194.35529147 216.52866354 218.20683045 199.21875 240.140625 C196.71607152 243.36590783 194.3554143 246.66592764 192 250 C193.16402344 251.49273437 193.16402344 251.49273437 194.3515625 253.015625 C213.65141935 277.911352 229.84013337 303.8593113 244 332 C244.433125 332.85158691 244.86625 333.70317383 245.3125 334.58056641 C246.49660405 336.92055954 247.65909421 339.26975212 248.8125 341.625 C249.15643799 342.3053833 249.50037598 342.9857666 249.85473633 343.68676758 C251.74027688 347.63347016 252.42308699 349.85175503 251 354 C249.29083385 356.06124158 247.62850701 357.86213185 245.71484375 359.7109375 C245.18033096 360.24216217 244.64581818 360.77338684 244.09510803 361.32070923 C242.38506166 363.01504457 240.66138564 364.69476008 238.9375 366.375 C237.80447528 367.49652439 236.67230475 368.61891242 235.54101562 369.7421875 C229.85837083 375.36234462 224.09614558 380.82651896 218 386 C216.91665841 386.94902713 215.83458709 387.89950662 214.75390625 388.8515625 C205.81021657 396.65208425 196.50488189 403.89857479 187 411 C186.34854004 411.48887695 185.69708008 411.97775391 185.02587891 412.48144531 C162.59685535 429.28174021 138.81267449 443.98816135 114 457 C113.07413086 457.48823242 112.14826172 457.97646484 111.19433594 458.47949219 C88.30305618 470.47468093 64.69044362 480.347397 40.1875 488.5 C39.09036682 488.86557007 39.09036682 488.86557007 37.97106934 489.23852539 C29.83811658 491.93222469 21.65544579 494.46177978 13.42578125 496.84375 C12.7006987 497.06107788 11.97561615 497.27840576 11.2285614 497.50231934 C6.33856853 498.88390018 2.0840895 499.52209895 -3 499 C-5.0949707 497.35644531 -5.0949707 497.35644531 -6.61328125 495.078125 C-7.18256348 494.25248047 -7.7518457 493.42683594 -8.33837891 492.57617188 C-8.88671387 491.72603516 -9.43504883 490.87589844 -10 490 C-10.51868652 489.24783203 -11.03737305 488.49566406 -11.57177734 487.72070312 C-13.14926827 485.42050941 -14.6747925 483.09326463 -16.1875 480.75 C-16.74429443 479.88793945 -17.30108887 479.02587891 -17.87475586 478.13769531 C-58 415.39413527 -58 415.39413527 -58 395 C-59.06347656 395.29777344 -60.12695312 395.59554688 -61.22265625 395.90234375 C-66.8929619 397.31587261 -72.63747537 397.92269216 -78.4375 398.5625 C-79.60345703 398.69180908 -80.76941406 398.82111816 -81.97070312 398.9543457 C-107.24002283 401.68952207 -132.83106164 401.96331539 -158.1875 400.125 C-159.28433105 400.04660889 -160.38116211 399.96821777 -161.51123047 399.88745117 C-166.94129371 399.44058704 -171.76363726 398.59010815 -177 397 C-183.28080583 372.78975256 -188.79665712 348.68922639 -192.1875 323.875 C-192.34250977 322.74562012 -192.49751953 321.61624023 -192.65722656 320.45263672 C-193.1511461 316.63955634 -193.59142881 312.82296462 -194 309 C-194.08827057 308.18727631 -194.17654114 307.37455261 -194.26748657 306.53720093 C-196.0238102 289.82394753 -196.34491652 273.16285726 -196.31567383 256.37670898 C-196.31106662 253.5165219 -196.31789687 250.65676265 -196.33618164 247.79663086 C-196.64986652 198.16771266 -189.07931135 149.85934508 -176 102 C-159.74433219 99.17650289 -143.57748542 98.7653048 -127.125 98.75 C-126.16955292 98.74832825 -125.21410583 98.74665649 -124.22970581 98.74493408 C-101.93140921 98.74261403 -80.02498566 100.40719007 -58 104 C-57.69634521 103.26209229 -57.39269043 102.52418457 -57.07983398 101.76391602 C-25.54418542 25.54418542 -25.54418542 25.54418542 0 0 Z M-57 106 C-66.71247717 134.90527245 -74.59929385 163.75289296 -79 194 C-79.16516113 195.09183594 -79.33032227 196.18367188 -79.50048828 197.30859375 C-84.75810866 233.54104692 -84.45466239 272.81454282 -79 309 C-78.83371094 310.15822266 -78.66742188 311.31644531 -78.49609375 312.50976562 C-74.41591937 340.36073372 -67.49146231 367.50935921 -58 394 C-48.14652492 392.77780471 -38.62576987 390.94145576 -29 388.5 C-28.31701843 388.32804108 -27.63403687 388.15608215 -26.93035889 387.97891235 C29.98714944 373.55625375 83.57570973 347.32016833 129 310 C129.5470459 309.55060059 130.0940918 309.10120117 130.65771484 308.63818359 C142.52886701 298.8330919 153.78166391 288.40538881 164.66479492 277.52050781 C166.19237416 275.99513287 167.72783582 274.47799328 169.26367188 272.9609375 C180.62093693 262.07254537 180.62093693 262.07254537 189 249 C172.64537873 229.80469409 155.65675918 210.96380458 135.8359375 195.25 C133.68909883 193.54672304 131.57724235 191.82110438 129.4765625 190.0625 C82.23321613 150.6810143 6.89857631 106 -57 106 Z " fill="#000000" transform="translate(196,0)"/>
<path d="M0 0 C1.31176758 1.24316406 1.31176758 1.24316406 2.64453125 3.015625 C3.4015332 4.01082153 3.4015332 4.01082153 4.17382812 5.02612305 C4.71458984 5.76000244 5.25535156 6.49388184 5.8125 7.25 C6.38291016 8.0128833 6.95332031 8.7757666 7.54101562 9.56176758 C9.37523824 12.03081724 11.1899574 14.51317982 13 17 C13.87470947 18.19471924 13.87470947 18.19471924 14.76708984 19.41357422 C29.15813438 39.16954216 41.02528603 60.18934194 52 82 C52.433125 82.85158691 52.86625 83.70317383 53.3125 84.58056641 C54.49660405 86.92055954 55.65909421 89.26975212 56.8125 91.625 C57.15643799 92.3053833 57.50037598 92.9857666 57.85473633 93.68676758 C59.74027688 97.63347016 60.42308699 99.85175503 59 104 C57.29083385 106.06124158 55.62850701 107.86213185 53.71484375 109.7109375 C53.18033096 110.24216217 52.64581818 110.77338684 52.09510803 111.32070923 C50.38506166 113.01504457 48.66138564 114.69476008 46.9375 116.375 C45.80447528 117.49652439 44.67230475 118.61891242 43.54101562 119.7421875 C37.85837083 125.36234462 32.09614558 130.82651896 26 136 C24.91665841 136.94902713 23.83458709 137.89950662 22.75390625 138.8515625 C13.81021657 146.65208425 4.50488189 153.89857479 -5 161 C-5.65145996 161.48887695 -6.30291992 161.97775391 -6.97412109 162.48144531 C-29.40314465 179.28174021 -53.18732551 193.98816135 -78 207 C-78.92586914 207.48823242 -79.85173828 207.97646484 -80.80566406 208.47949219 C-103.69694382 220.47468093 -127.30955638 230.347397 -151.8125 238.5 C-152.54392212 238.74371338 -153.27534424 238.98742676 -154.02893066 239.23852539 C-162.16188342 241.93222469 -170.34455421 244.46177978 -178.57421875 246.84375 C-179.2993013 247.06107788 -180.02438385 247.27840576 -180.7714386 247.50231934 C-185.66143147 248.88390018 -189.9159105 249.52209895 -195 249 C-197.0949707 247.35644531 -197.0949707 247.35644531 -198.61328125 245.078125 C-199.18256348 244.25248047 -199.7518457 243.42683594 -200.33837891 242.57617188 C-200.88671387 241.72603516 -201.43504883 240.87589844 -202 240 C-202.51868652 239.24783203 -203.03737305 238.49566406 -203.57177734 237.72070312 C-205.14926827 235.42050941 -206.6747925 233.09326463 -208.1875 230.75 C-208.74429443 229.88793945 -209.30108887 229.02587891 -209.87475586 228.13769531 C-223.67000567 206.56616091 -235.52015621 183.93329909 -245.25 160.25 C-245.72832275 159.08903809 -246.20664551 157.92807617 -246.69946289 156.73193359 C-247.35096313 155.10892334 -247.35096313 155.10892334 -248.015625 153.453125 C-248.40008789 152.49567383 -248.78455078 151.53822266 -249.18066406 150.55175781 C-250 148 -250 148 -250 144 C-249.19183838 143.82460693 -248.38367676 143.64921387 -247.55102539 143.46850586 C-210.93653011 135.47777083 -175.85806385 125.39736677 -142 109 C-141.07525879 108.56075195 -140.15051758 108.12150391 -139.19775391 107.66894531 C-111.86379765 94.67845491 -86.38061563 78.20929322 -63 59 C-62.4529541 58.55060059 -61.9059082 58.10120117 -61.34228516 57.63818359 C-49.6495413 47.98044995 -38.60996498 37.70420496 -27.84906006 27.02429199 C-26.84183768 26.02511139 -25.83313969 25.02741559 -24.82281494 24.03137207 C-18.78019848 18.06514231 -13.13557374 11.95475875 -7.86401367 5.29492188 C-3.56329787 0 -3.56329787 0 0 0 Z " fill="#19C504" transform="translate(388,250)"/>
<path d="M0 0 C73.5872255 15.22861541 147.59964623 53.41707033 204.1015625 102.5 C206.81213825 104.83796291 209.57696791 107.08063862 212.375 109.3125 C222.12861257 117.24982401 231.15251474 126.07580244 240 135 C240.825 135.825 241.65 136.65 242.5 137.5 C243.325 138.325 244.15 139.15 245 140 C245.62648438 140.54527344 246.25296875 141.09054688 246.8984375 141.65234375 C247.55070312 142.24144531 248.20296875 142.83054688 248.875 143.4375 C249.49117188 143.97246094 250.10734375 144.50742188 250.7421875 145.05859375 C252 147 252 147 251.75463867 149.72021484 C250.94293864 153.24799815 249.73880325 156.15013015 248.18359375 159.41796875 C247.89572495 160.02427628 247.60785614 160.6305838 247.31126404 161.25526428 C246.36379826 163.23791336 245.4024024 165.21328273 244.4375 167.1875 C244.10631165 167.86929321 243.77512329 168.55108643 243.43389893 169.25354004 C229.39253541 198.05792921 212.26756828 225.93406747 191 250 C186.7681451 248.43411458 184.45239237 245.26074312 181.6875 241.875 C167.83218927 225.35669683 152.7723501 209.72077608 135.87109375 196.28515625 C133.71292552 194.56743051 131.58711689 192.82864291 129.47265625 191.05859375 C75.59141307 146.1518357 11.04703541 120.2309432 -57 106 C-55.63981106 98.58428066 -53.15707163 92.17058061 -50.0625 85.3125 C-49.57378418 84.2196167 -49.08506836 83.1267334 -48.58154297 82.00073242 C-35.41897251 52.82489694 -19.89745355 25.15052894 0 0 Z " fill="#6716FE" transform="translate(196,0)"/>
</svg>
